# xmcd
#
# Track frame offsets:
#	183
#	15205
#	29470
#	40698
#	52240
#	67838
#	83818
#	98958
#	113748
#	127318
#	139295
#	153130
#	167720
#	185713
#	194543
#
# Disc length: 3199 seconds
#
# Revision: 1
# Processed by: cddbd v1.5.1PL0 Copyright (c) Steve Scherf et al.
# Submitted via: audiograbber 1.83.01
#
DISCID=cc0c7d0f
DTITLE=Memphis Slim - London Sessions, 1960
DYEAR=1900
DGENRE=Blues
TTITLE0=Help Me Some
TTITLE1=Ain't Nobody's Business
TTITLE2=Fattenin' Frogs For Snakes
TTITLE3=Messin' Around
TTITLE4=I Feel So Good
TTITLE5=Worried Life
TTITLE6=Every Day
TTITLE7=Angel Child
TTITLE8=One More Time
TTITLE9=Messin' Around Take 4
TTITLE10=I Feel So Good Take 2
TTITLE11=Ain't Nobody's Business Take 1
TTITLE12=Every Day Take 1
TTITLE13=Fattenin' Frogs For Snakes Take 1
TTITLE14=Blues In London (Parts 1 and 2)
EXTD=
EXTT0=
EXTT1=
EXTT2=
EXTT3=
EXTT4=
EXTT5=
EXTT6=
EXTT7=
EXTT8=
EXTT9=
EXTT10=
EXTT11=
EXTT12=
EXTT13=
EXTT14=
PLAYORDER=
